<?xml version="1.0" standalone="no"?>
<svg xmlns:xlink="http://www.w3.org/1999/xlink" id="wave" style="transform:rotate(180deg); transition: 0.3s" viewBox="0 0 1440 490" version="1.1" xmlns="http://www.w3.org/2000/svg"><defs><linearGradient id="sw-gradient-0" x1="0" x2="0" y1="1" y2="0"><stop stop-color="rgba(113.988, 243, 62, 1)" offset="0%"/><stop stop-color="rgba(255, 179, 11, 1)" offset="100%"/></linearGradient></defs><path style="transform:translate(0, 0px); opacity:1" fill="url(#sw-gradient-0)" d="M0,294L26.7,285.8C53.3,278,107,261,160,253.2C213.3,245,267,245,320,228.7C373.3,212,427,180,480,196C533.3,212,587,278,640,269.5C693.3,261,747,180,800,171.5C853.3,163,907,229,960,253.2C1013.3,278,1067,261,1120,277.7C1173.3,294,1227,343,1280,302.2C1333.3,261,1387,131,1440,114.3C1493.3,98,1547,196,1600,236.8C1653.3,278,1707,261,1760,277.7C1813.3,294,1867,343,1920,334.8C1973.3,327,2027,261,2080,269.5C2133.3,278,2187,359,2240,375.7C2293.3,392,2347,343,2400,285.8C2453.3,229,2507,163,2560,179.7C2613.3,196,2667,294,2720,294C2773.3,294,2827,196,2880,171.5C2933.3,147,2987,196,3040,179.7C3093.3,163,3147,82,3200,73.5C3253.3,65,3307,131,3360,147C3413.3,163,3467,131,3520,171.5C3573.3,212,3627,327,3680,375.7C3733.3,425,3787,408,3813,400.2L3840,392L3840,490L3813.3,490C3786.7,490,3733,490,3680,490C3626.7,490,3573,490,3520,490C3466.7,490,3413,490,3360,490C3306.7,490,3253,490,3200,490C3146.7,490,3093,490,3040,490C2986.7,490,2933,490,2880,490C2826.7,490,2773,490,2720,490C2666.7,490,2613,490,2560,490C2506.7,490,2453,490,2400,490C2346.7,490,2293,490,2240,490C2186.7,490,2133,490,2080,490C2026.7,490,1973,490,1920,490C1866.7,490,1813,490,1760,490C1706.7,490,1653,490,1600,490C1546.7,490,1493,490,1440,490C1386.7,490,1333,490,1280,490C1226.7,490,1173,490,1120,490C1066.7,490,1013,490,960,490C906.7,490,853,490,800,490C746.7,490,693,490,640,490C586.7,490,533,490,480,490C426.7,490,373,490,320,490C266.7,490,213,490,160,490C106.7,490,53,490,27,490L0,490Z"/></svg>